# xmcd CD database file
#
# Track frame offsets:
#	150
#	28901
#	50528
#	84013
#	121744
#	137771
#	163524
#	182153
#	207471
#	224596
#
# Disc length: 3429 seconds
#
# Revision: 0
# Processed by: cddbd v1.5.2PL0 Copyright (c) Steve Scherf et al.
# Submitted via: CDex 1.60beta1
#
DISCID=8c0d630a
DTITLE=Jazz Inflections - Accord I On
DYEAR=2006
DGENRE=Jazz
TTITLE0=Richard Galliano - Libertango (Piazzolla)
TTITLE1=Dino Saluzzi - It's all There (Alter)
TTITLE2=Renaud Garcia-Fons - Navigator (Garcia-Fons)
TTITLE3=Christian Escoude - Django (Lewis)
TTITLE4=Gidon Kremer - El Sol Sueno (Trad.)
TTITLE5=Renaud Garcia-Fons - Fui Fedra (Garcia-Fons)
TTITLE6=Dino Saluzzi - Home (Alter)
TTITLE7=Friedman/Cox/Matinier - Tango (Friedman)
TTITLE8=Richard Galliano - Laurita (Piazzolla)
TTITLE9=Gianluigi Trovesi - Canzonetta (Trovesi)
EXTD=YEAR: 2006
EXTT0=
EXTT1=
EXTT2=
EXTT3=
EXTT4=
EXTT5=
EXTT6=
EXTT7=
EXTT8=
EXTT9=
PLAYORDER=
